<?xml version="1.0" encoding="UTF-8"?>
<svg id="Layer_2" data-name="Layer 2" xmlns="http://www.w3.org/2000/svg" xmlns:xlink="http://www.w3.org/1999/xlink" viewBox="0 0 547.78 116.2">
  <defs>
    <style>
      .cls-1 {
        fill: #fff;
      }

      .cls-2 {
        fill: #6a27a8;
      }

      .cls-3 {
        fill: url(#linear-gradient);
      }
    </style>
    <linearGradient id="linear-gradient" x1="8.62" y1="107.45" x2="90.89" y2="13.07" gradientUnits="userSpaceOnUse">
      <stop offset="0" stop-color="#9536eb"/>
      <stop offset="1" stop-color="#ff3d84"/>
    </linearGradient>
  </defs>
  <g id="Layer_1-2" data-name="Layer 1">
    <path class="cls-2" d="M213.52,36.17c5.87,6.24,8.78,14.32,8.78,24.32s-2.91,17.94-8.78,24.23c-5.87,6.29-13.71,9.44-23.43,9.44h-29.25V26.82h29.25c9.72,0,17.56,3.1,23.43,9.34Zm-9.77,39.96c3.52-4.08,5.26-9.39,5.26-15.92s-1.74-11.6-5.26-15.59c-3.52-3.99-8.17-5.96-13.94-5.96h-15.87v43.57h15.87c5.77,0,10.42-2.02,13.94-6.1Zm54.54-31.32v11.93c-5.3-.85-9.34,.05-12.02,2.68-2.68,2.68-4.04,7.18-4.04,13.57v21.17h-12.68V45.51h12.68v7.18c3.19-6.29,8.54-8.92,16.06-7.89Zm6.94-8.31c-1.46-1.46-2.21-3.19-2.21-5.31s.75-3.8,2.21-5.21c1.46-1.41,3.29-2.11,5.4-2.11s3.9,.7,5.35,2.11c1.46,1.41,2.21,3.15,2.21,5.21s-.75,3.9-2.21,5.31c-1.46,1.46-3.24,2.16-5.35,2.16s-3.94-.71-5.4-2.16Zm-1.17,9.01h12.77v48.64h-12.77V45.51Zm68.59,5.92c4.55,4.88,6.86,11.03,6.86,18.41s-2.3,13.38-6.9,18.31c-4.65,4.93-10.33,7.37-17.04,7.37s-11.88-2.44-15.78-7.32v26.15h-12.68V45.51h12.68v5.87c3.85-4.84,9.11-7.23,15.78-7.23s12.49,2.44,17.09,7.28Zm-9.48,28.69c2.58-2.68,3.85-6.15,3.85-10.38s-1.27-7.56-3.85-10.24c-2.58-2.68-5.82-3.99-9.81-3.99s-7.18,1.36-9.86,4.04-3.99,6.1-3.99,10.19,1.31,7.61,3.99,10.33c2.68,2.72,5.96,4.08,9.86,4.08s7.23-1.36,9.81-4.04Zm39.85-34.6h14.7v11.13h-14.7v37.51h-12.68V56.64h-9.34v-11.13h9.34v-4.41c0-5.78,1.46-10.28,4.37-13.57,2.91-3.29,7.14-4.93,12.72-4.93,4.27,0,7.93,.7,10.99,2.11l-3.1,10.19c-1.92-.84-3.94-1.27-6.06-1.22-1.97,0-3.52,.66-4.6,1.97-1.08,1.31-1.64,3.15-1.64,5.45v4.41Zm20.98,42.63c-4.93-4.93-7.42-11.03-7.42-18.36s2.49-13.38,7.42-18.31c4.93-4.88,11.13-7.32,18.64-7.32s13.66,2.44,18.59,7.32c4.93,4.93,7.37,11.03,7.37,18.31s-2.44,13.43-7.37,18.36-11.13,7.37-18.59,7.37-13.71-2.44-18.64-7.37Zm28.5-8.17c2.49-2.68,3.76-6.06,3.76-10.14s-1.27-7.47-3.76-10.14c-2.54-2.68-5.82-3.99-9.86-3.99s-7.32,1.31-9.86,3.99c-2.54,2.68-3.8,6.06-3.8,10.14s1.27,7.46,3.8,10.14c2.54,2.68,5.82,3.99,9.86,3.99s7.32-1.31,9.86-3.99Zm52.01-35.17v11.93c-5.31-.85-9.34,.05-12.02,2.68-2.68,2.68-4.04,7.18-4.04,13.57v21.17h-12.68V45.51h12.68v7.18c3.19-6.29,8.55-8.92,16.06-7.89Zm78.07,4.88c3.47,3.71,5.21,8.87,5.21,15.54v28.92h-12.72v-26.25c0-7.93-3.1-11.93-9.3-11.93-3.33,0-5.87,1.17-7.61,3.47-1.78,2.35-2.68,5.63-2.68,9.91v24.79h-12.82v-26.25c0-7.93-3.05-11.93-9.11-11.93-3.43,0-6.01,1.22-7.79,3.62-1.83,2.39-2.72,5.78-2.72,10.14v24.42h-12.68V45.51h12.68v5.78c3.66-4.74,8.5-7.14,14.46-7.14,6.62,0,11.46,2.44,14.6,7.32,3.85-4.88,9.34-7.32,16.43-7.32,5.87,0,10.56,1.83,14.04,5.54Z"/>
    <path class="cls-3" d="M0,10.39V105.81c0,5.74,4.65,10.39,10.39,10.39H75.96c26.3,0,47.61-21.32,47.61-47.61v-20.97C123.57,21.32,102.26,0,75.96,0H10.39C4.65,0,0,4.65,0,10.39Z"/>
    <g>
      <rect class="cls-1" x="21.58" y="48.09" width="74.6" height="20.01" rx="10.01" ry="10.01"/>
      <rect class="cls-1" x="21.58" y="21.63" width="74.6" height="20.01" rx="10.01" ry="10.01"/>
      <rect class="cls-1" x="21.58" y="74.55" width="37.3" height="20.01" rx="10.01" ry="10.01"/>
    </g>
  </g>
</svg>